<mxfile host="app.diagrams.net" modified="2021-01-12T09:23:30.304Z" agent="5.0 (Windows NT 10.0; Win64; x64) AppleWebKit/537.36 (KHTML, like Gecko) Chrome/87.0.4280.141 Safari/537.36" etag="33DF2dFbnbk3GGdeaJJ3" version="14.1.8" type="github" pages="2">
  <diagram id="dfUOYU3nvCvd80Qgg6J4" name="Page-1">
    <mxGraphModel dx="1422" dy="762" grid="0" gridSize="10" guides="1" tooltips="1" connect="1" arrows="1" fold="1" page="1" pageScale="1" pageWidth="827" pageHeight="1169" math="0" shadow="0">
      <root>
        <mxCell id="0" />
        <mxCell id="1" parent="0" />
        <mxCell id="VtjjFmpR8iFEWMvWRzmt-4" value="" style="rounded=1;whiteSpace=wrap;html=1;strokeWidth=2;fillColor=#dae8fc;strokeColor=#6c8ebf;" vertex="1" parent="1">
          <mxGeometry x="260" y="130" width="330" height="430" as="geometry" />
        </mxCell>
        <mxCell id="VtjjFmpR8iFEWMvWRzmt-1" value="线程A" style="rounded=1;whiteSpace=wrap;html=1;strokeWidth=2;fillColor=#fff2cc;strokeColor=#d6b656;" vertex="1" parent="1">
          <mxGeometry x="305" y="390" width="50" height="130" as="geometry" />
        </mxCell>
        <mxCell id="VtjjFmpR8iFEWMvWRzmt-6" value="&lt;span&gt;线程B&lt;/span&gt;" style="rounded=1;whiteSpace=wrap;html=1;strokeWidth=2;fillColor=#fff2cc;strokeColor=#d6b656;" vertex="1" parent="1">
          <mxGeometry x="397.5" y="390" width="50" height="130" as="geometry" />
        </mxCell>
        <mxCell id="VtjjFmpR8iFEWMvWRzmt-7" value="&lt;span&gt;线程C&lt;/span&gt;" style="rounded=1;whiteSpace=wrap;html=1;strokeWidth=2;fillColor=#fff2cc;strokeColor=#d6b656;" vertex="1" parent="1">
          <mxGeometry x="484" y="390" width="50" height="130" as="geometry" />
        </mxCell>
        <mxCell id="VtjjFmpR8iFEWMvWRzmt-8" value="进程资源" style="rounded=0;whiteSpace=wrap;html=1;strokeWidth=2;fillColor=#d5e8d4;strokeColor=#82b366;" vertex="1" parent="1">
          <mxGeometry x="355" y="193" width="135" height="50" as="geometry" />
        </mxCell>
        <mxCell id="VtjjFmpR8iFEWMvWRzmt-10" style="edgeStyle=orthogonalEdgeStyle;rounded=0;orthogonalLoop=1;jettySize=auto;html=1;entryX=0.5;entryY=1;entryDx=0;entryDy=0;strokeWidth=2;endArrow=classic;endFill=1;startArrow=classic;startFill=1;" edge="1" parent="1" source="VtjjFmpR8iFEWMvWRzmt-9" target="VtjjFmpR8iFEWMvWRzmt-8">
          <mxGeometry relative="1" as="geometry" />
        </mxCell>
        <mxCell id="VtjjFmpR8iFEWMvWRzmt-15" style="edgeStyle=orthogonalEdgeStyle;rounded=0;orthogonalLoop=1;jettySize=auto;html=1;startArrow=classic;startFill=1;endArrow=classic;endFill=1;strokeWidth=2;" edge="1" parent="1" source="VtjjFmpR8iFEWMvWRzmt-9" target="VtjjFmpR8iFEWMvWRzmt-1">
          <mxGeometry relative="1" as="geometry" />
        </mxCell>
        <mxCell id="VtjjFmpR8iFEWMvWRzmt-16" style="edgeStyle=orthogonalEdgeStyle;rounded=0;orthogonalLoop=1;jettySize=auto;html=1;startArrow=classic;startFill=1;endArrow=classic;endFill=1;strokeWidth=2;" edge="1" parent="1" source="VtjjFmpR8iFEWMvWRzmt-9" target="VtjjFmpR8iFEWMvWRzmt-6">
          <mxGeometry relative="1" as="geometry" />
        </mxCell>
        <mxCell id="VtjjFmpR8iFEWMvWRzmt-17" style="edgeStyle=orthogonalEdgeStyle;rounded=0;orthogonalLoop=1;jettySize=auto;html=1;startArrow=classic;startFill=1;endArrow=classic;endFill=1;strokeWidth=2;" edge="1" parent="1" source="VtjjFmpR8iFEWMvWRzmt-9" target="VtjjFmpR8iFEWMvWRzmt-7">
          <mxGeometry relative="1" as="geometry" />
        </mxCell>
        <mxCell id="VtjjFmpR8iFEWMvWRzmt-9" value="竞争" style="ellipse;whiteSpace=wrap;html=1;aspect=fixed;strokeWidth=2;fillColor=#f8cecc;strokeColor=#b85450;" vertex="1" parent="1">
          <mxGeometry x="402.5" y="290" width="40" height="40" as="geometry" />
        </mxCell>
        <mxCell id="VtjjFmpR8iFEWMvWRzmt-18" value="读/写" style="text;html=1;strokeColor=#666666;fillColor=#f5f5f5;align=center;verticalAlign=middle;whiteSpace=wrap;rounded=0;fontColor=#333333;" vertex="1" parent="1">
          <mxGeometry x="357.5" y="280" width="40" height="20" as="geometry" />
        </mxCell>
        <mxCell id="VtjjFmpR8iFEWMvWRzmt-19" value="进程" style="text;html=1;align=center;verticalAlign=middle;resizable=0;points=[];autosize=1;fontStyle=1;fontSize=17;" vertex="1" parent="1">
          <mxGeometry x="397.5" y="150" width="50" height="30" as="geometry" />
        </mxCell>
        <mxCell id="VtjjFmpR8iFEWMvWRzmt-25" style="edgeStyle=orthogonalEdgeStyle;rounded=0;orthogonalLoop=1;jettySize=auto;html=1;exitX=0.5;exitY=1;exitDx=0;exitDy=0;startArrow=none;startFill=0;endArrow=classic;endFill=1;strokeWidth=2;fontSize=17;" edge="1" parent="1" source="VtjjFmpR8iFEWMvWRzmt-20" target="VtjjFmpR8iFEWMvWRzmt-22">
          <mxGeometry relative="1" as="geometry" />
        </mxCell>
        <mxCell id="VtjjFmpR8iFEWMvWRzmt-20" value="内存取出 i 值，加载进寄存器" style="rounded=1;whiteSpace=wrap;html=1;strokeWidth=2;fontSize=17;fillColor=#fff2cc;strokeColor=#d6b656;gradientColor=#ffd966;" vertex="1" parent="1">
          <mxGeometry x="296" y="670" width="242" height="63" as="geometry" />
        </mxCell>
        <mxCell id="VtjjFmpR8iFEWMvWRzmt-26" style="edgeStyle=orthogonalEdgeStyle;rounded=0;orthogonalLoop=1;jettySize=auto;html=1;entryX=0.5;entryY=0;entryDx=0;entryDy=0;startArrow=none;startFill=0;endArrow=classic;endFill=1;strokeWidth=2;fontSize=17;" edge="1" parent="1" source="VtjjFmpR8iFEWMvWRzmt-22" target="VtjjFmpR8iFEWMvWRzmt-23">
          <mxGeometry relative="1" as="geometry" />
        </mxCell>
        <mxCell id="VtjjFmpR8iFEWMvWRzmt-22" value="对寄存器内的 i 值加 1" style="rounded=1;whiteSpace=wrap;html=1;strokeWidth=2;fontSize=17;fillColor=#fff2cc;strokeColor=#d6b656;gradientColor=#ffd966;" vertex="1" parent="1">
          <mxGeometry x="296" y="778" width="242" height="63" as="geometry" />
        </mxCell>
        <mxCell id="VtjjFmpR8iFEWMvWRzmt-23" value="寄存器内的 i 值取出 加载进内存" style="rounded=1;whiteSpace=wrap;html=1;strokeWidth=2;fontSize=17;fillColor=#fff2cc;strokeColor=#d6b656;gradientColor=#ffd966;" vertex="1" parent="1">
          <mxGeometry x="296" y="886" width="242" height="63" as="geometry" />
        </mxCell>
      </root>
    </mxGraphModel>
  </diagram>
  <diagram id="RKPCg4LLafldSFskQoRQ" name="Page-2">
    <mxGraphModel dx="1422" dy="762" grid="0" gridSize="10" guides="1" tooltips="1" connect="1" arrows="1" fold="1" page="1" pageScale="1" pageWidth="1169" pageHeight="1654" math="0" shadow="0">
      <root>
        <mxCell id="x2p7T0bz7fGgUV8mMHAa-0" />
        <mxCell id="x2p7T0bz7fGgUV8mMHAa-1" parent="x2p7T0bz7fGgUV8mMHAa-0" />
        <mxCell id="x2p7T0bz7fGgUV8mMHAa-2" value="时间线" style="endArrow=classic;html=1;strokeWidth=2;fontSize=17;" edge="1" parent="x2p7T0bz7fGgUV8mMHAa-1">
          <mxGeometry relative="1" as="geometry">
            <mxPoint x="117" y="431" as="sourcePoint" />
            <mxPoint x="933" y="431" as="targetPoint" />
          </mxGeometry>
        </mxCell>
        <mxCell id="x2p7T0bz7fGgUV8mMHAa-4" value="执行" style="rounded=0;whiteSpace=wrap;html=1;strokeWidth=2;fontSize=17;align=center;fillColor=#cdeb8b;strokeColor=#36393d;" vertex="1" parent="x2p7T0bz7fGgUV8mMHAa-1">
          <mxGeometry x="185" y="218" width="151" height="31" as="geometry" />
        </mxCell>
        <mxCell id="-XWK2JxRDEjS-rN-0LKX-2" value="执行" style="rounded=0;whiteSpace=wrap;html=1;strokeWidth=2;fontSize=17;align=center;fillColor=#cdeb8b;strokeColor=#36393d;" vertex="1" parent="x2p7T0bz7fGgUV8mMHAa-1">
          <mxGeometry x="336" y="218" width="151" height="31" as="geometry" />
        </mxCell>
        <mxCell id="-XWK2JxRDEjS-rN-0LKX-3" value="未执行" style="rounded=0;whiteSpace=wrap;html=1;strokeWidth=2;fontSize=17;align=center;fillColor=#ffcccc;strokeColor=#36393d;" vertex="1" parent="x2p7T0bz7fGgUV8mMHAa-1">
          <mxGeometry x="486" y="218" width="272" height="31" as="geometry" />
        </mxCell>
        <mxCell id="-XWK2JxRDEjS-rN-0LKX-4" value="执行" style="rounded=0;whiteSpace=wrap;html=1;strokeWidth=2;fontSize=17;align=center;fillColor=#cdeb8b;strokeColor=#36393d;" vertex="1" parent="x2p7T0bz7fGgUV8mMHAa-1">
          <mxGeometry x="754" y="218" width="151" height="31" as="geometry" />
        </mxCell>
        <mxCell id="-XWK2JxRDEjS-rN-0LKX-8" value="未执行" style="rounded=0;whiteSpace=wrap;html=1;strokeWidth=2;fontSize=17;align=center;fillColor=#ffcccc;strokeColor=#36393d;" vertex="1" parent="x2p7T0bz7fGgUV8mMHAa-1">
          <mxGeometry x="755" y="353" width="151" height="31" as="geometry" />
        </mxCell>
        <mxCell id="-XWK2JxRDEjS-rN-0LKX-10" value="未执行" style="rounded=0;whiteSpace=wrap;html=1;strokeWidth=2;fontSize=17;align=center;fillColor=#ffcccc;strokeColor=#36393d;" vertex="1" parent="x2p7T0bz7fGgUV8mMHAa-1">
          <mxGeometry x="185" y="353" width="301" height="31" as="geometry" />
        </mxCell>
        <mxCell id="-XWK2JxRDEjS-rN-0LKX-13" value="执行" style="rounded=0;whiteSpace=wrap;html=1;strokeWidth=2;fontSize=17;align=center;fillColor=#cdeb8b;strokeColor=#36393d;" vertex="1" parent="x2p7T0bz7fGgUV8mMHAa-1">
          <mxGeometry x="486" y="353" width="269" height="31" as="geometry" />
        </mxCell>
        <mxCell id="-XWK2JxRDEjS-rN-0LKX-14" value="" style="endArrow=none;startArrow=classic;html=1;strokeWidth=2;fontSize=17;entryX=0;entryY=1;entryDx=0;entryDy=0;exitX=1;exitY=0;exitDx=0;exitDy=0;dashed=1;startFill=1;endFill=0;" edge="1" parent="x2p7T0bz7fGgUV8mMHAa-1" source="-XWK2JxRDEjS-rN-0LKX-10" target="-XWK2JxRDEjS-rN-0LKX-3">
          <mxGeometry width="50" height="50" relative="1" as="geometry">
            <mxPoint x="462" y="327" as="sourcePoint" />
            <mxPoint x="512" y="277" as="targetPoint" />
          </mxGeometry>
        </mxCell>
        <mxCell id="-XWK2JxRDEjS-rN-0LKX-15" value="" style="endArrow=classic;startArrow=none;html=1;strokeWidth=2;fontSize=17;entryX=0;entryY=1;entryDx=0;entryDy=0;exitX=1;exitY=0;exitDx=0;exitDy=0;dashed=1;endFill=1;startFill=0;" edge="1" parent="x2p7T0bz7fGgUV8mMHAa-1" source="-XWK2JxRDEjS-rN-0LKX-13" target="-XWK2JxRDEjS-rN-0LKX-4">
          <mxGeometry width="50" height="50" relative="1" as="geometry">
            <mxPoint x="735" y="324" as="sourcePoint" />
            <mxPoint x="785" y="274" as="targetPoint" />
          </mxGeometry>
        </mxCell>
        <mxCell id="-XWK2JxRDEjS-rN-0LKX-16" value="第一步" style="text;html=1;strokeColor=none;fillColor=none;align=center;verticalAlign=middle;whiteSpace=wrap;rounded=0;fontSize=15;" vertex="1" parent="x2p7T0bz7fGgUV8mMHAa-1">
          <mxGeometry x="224.5" y="177" width="72" height="19" as="geometry" />
        </mxCell>
        <mxCell id="-XWK2JxRDEjS-rN-0LKX-19" value="第二步" style="text;html=1;strokeColor=none;fillColor=none;align=center;verticalAlign=middle;whiteSpace=wrap;rounded=0;fontSize=15;" vertex="1" parent="x2p7T0bz7fGgUV8mMHAa-1">
          <mxGeometry x="371" y="177" width="72" height="19" as="geometry" />
        </mxCell>
        <mxCell id="-XWK2JxRDEjS-rN-0LKX-20" value="第三步" style="text;html=1;strokeColor=none;fillColor=none;align=center;verticalAlign=middle;whiteSpace=wrap;rounded=0;fontSize=15;" vertex="1" parent="x2p7T0bz7fGgUV8mMHAa-1">
          <mxGeometry x="789" y="177" width="72" height="19" as="geometry" />
        </mxCell>
        <mxCell id="-XWK2JxRDEjS-rN-0LKX-21" value="三步到位" style="text;html=1;strokeColor=none;fillColor=none;align=center;verticalAlign=middle;whiteSpace=wrap;rounded=0;fontSize=15;" vertex="1" parent="x2p7T0bz7fGgUV8mMHAa-1">
          <mxGeometry x="560" y="315" width="105" height="24" as="geometry" />
        </mxCell>
        <mxCell id="-XWK2JxRDEjS-rN-0LKX-22" value="线程A" style="text;html=1;strokeColor=none;fillColor=none;align=center;verticalAlign=middle;whiteSpace=wrap;rounded=0;fontSize=15;fontStyle=1" vertex="1" parent="x2p7T0bz7fGgUV8mMHAa-1">
          <mxGeometry x="102" y="223" width="66" height="21" as="geometry" />
        </mxCell>
        <mxCell id="-XWK2JxRDEjS-rN-0LKX-23" value="线程B" style="text;html=1;strokeColor=none;fillColor=none;align=center;verticalAlign=middle;whiteSpace=wrap;rounded=0;fontSize=15;fontStyle=1" vertex="1" parent="x2p7T0bz7fGgUV8mMHAa-1">
          <mxGeometry x="102" y="358" width="66" height="21" as="geometry" />
        </mxCell>
        <mxCell id="-XWK2JxRDEjS-rN-0LKX-26" style="edgeStyle=orthogonalEdgeStyle;rounded=0;orthogonalLoop=1;jettySize=auto;html=1;entryX=0;entryY=0;entryDx=0;entryDy=0;startArrow=none;startFill=0;endArrow=classic;endFill=1;strokeWidth=2;fontSize=15;curved=1;" edge="1" parent="x2p7T0bz7fGgUV8mMHAa-1" source="-XWK2JxRDEjS-rN-0LKX-25" target="-XWK2JxRDEjS-rN-0LKX-3">
          <mxGeometry relative="1" as="geometry" />
        </mxCell>
        <mxCell id="-XWK2JxRDEjS-rN-0LKX-25" value="时间片使用完" style="ellipse;shape=cloud;whiteSpace=wrap;html=1;strokeWidth=2;fontSize=15;align=center;fillColor=#f8cecc;strokeColor=#b85450;" vertex="1" parent="x2p7T0bz7fGgUV8mMHAa-1">
          <mxGeometry x="378" y="65" width="126" height="81" as="geometry" />
        </mxCell>
        <mxCell id="-XWK2JxRDEjS-rN-0LKX-28" style="edgeStyle=orthogonalEdgeStyle;curved=1;rounded=0;orthogonalLoop=1;jettySize=auto;html=1;entryX=0;entryY=0;entryDx=0;entryDy=0;startArrow=none;startFill=0;endArrow=classic;endFill=1;strokeWidth=2;fontSize=15;" edge="1" parent="x2p7T0bz7fGgUV8mMHAa-1" source="-XWK2JxRDEjS-rN-0LKX-27" target="-XWK2JxRDEjS-rN-0LKX-4">
          <mxGeometry relative="1" as="geometry" />
        </mxCell>
        <mxCell id="-XWK2JxRDEjS-rN-0LKX-27" value="重新调度" style="ellipse;shape=cloud;whiteSpace=wrap;html=1;strokeWidth=2;fontSize=15;align=center;fillColor=#d5e8d4;strokeColor=#82b366;" vertex="1" parent="x2p7T0bz7fGgUV8mMHAa-1">
          <mxGeometry x="714" y="65" width="126" height="81" as="geometry" />
        </mxCell>
      </root>
    </mxGraphModel>
  </diagram>
</mxfile>
